<mxfile host="app.diagrams.net" modified="2023-03-27T20:40:35.297Z" agent="5.0 (Windows NT 10.0; Win64; x64) AppleWebKit/537.36 (KHTML, like Gecko) Chrome/111.0.0.0 Safari/537.36" etag="y_fujGw04b6LQT_YgYrr" version="21.0.2" type="github">
  <diagram name="Page-1" id="oHGN7J-0XXW0CqSuOGDH">
    <mxGraphModel dx="1105" dy="1747" grid="1" gridSize="10" guides="1" tooltips="1" connect="1" arrows="1" fold="1" page="1" pageScale="1" pageWidth="827" pageHeight="1169" math="0" shadow="0">
      <root>
        <mxCell id="0" />
        <mxCell id="1" parent="0" />
        <mxCell id="KYSWxHfdA6B5Yg-FgnPo-15" value="" style="group" vertex="1" connectable="0" parent="1">
          <mxGeometry x="148" y="35" width="77.44" height="90" as="geometry" />
        </mxCell>
        <mxCell id="KYSWxHfdA6B5Yg-FgnPo-12" value="" style="shape=image;verticalLabelPosition=bottom;labelBackgroundColor=default;verticalAlign=top;aspect=fixed;imageAspect=0;image=https://www.nicorette.de/sites/nicorette_de/files/nic293_logo_neu_weiss_0.png;imageBackground=#1b1818;fillStyle=solid;" vertex="1" parent="KYSWxHfdA6B5Yg-FgnPo-15">
          <mxGeometry x="18.658200000000004" y="28.125" width="39.304216406250006" height="11.261953125000002" as="geometry" />
        </mxCell>
        <mxCell id="KYSWxHfdA6B5Yg-FgnPo-14" value="" style="shape=image;html=1;verticalAlign=top;verticalLabelPosition=bottom;labelBackgroundColor=#ffffff;imageAspect=0;aspect=fixed;image=https://cdn4.iconfinder.com/data/icons/essentials-71/24/038_-_Mobile-128.png" vertex="1" parent="KYSWxHfdA6B5Yg-FgnPo-15">
          <mxGeometry width="75.87" height="75.87" as="geometry" />
        </mxCell>
        <mxCell id="KYSWxHfdA6B5Yg-FgnPo-16" value="" style="group" vertex="1" connectable="0" parent="1">
          <mxGeometry x="116" y="316.00000000000006" width="170" height="146" as="geometry" />
        </mxCell>
        <mxCell id="KYSWxHfdA6B5Yg-FgnPo-6" value="" style="group" vertex="1" connectable="0" parent="KYSWxHfdA6B5Yg-FgnPo-16">
          <mxGeometry width="170" height="146" as="geometry" />
        </mxCell>
        <mxCell id="KYSWxHfdA6B5Yg-FgnPo-2" value="" style="shape=image;html=1;verticalAlign=top;verticalLabelPosition=bottom;labelBackgroundColor=#ffffff;imageAspect=0;aspect=fixed;image=https://cdn4.iconfinder.com/data/icons/essential-app-1/16/mobile-phone-smart-screen-128.png" vertex="1" parent="KYSWxHfdA6B5Yg-FgnPo-6">
          <mxGeometry width="60" height="60" as="geometry" />
        </mxCell>
        <mxCell id="KYSWxHfdA6B5Yg-FgnPo-1" value="" style="shape=image;html=1;verticalAlign=top;verticalLabelPosition=bottom;labelBackgroundColor=#ffffff;imageAspect=0;aspect=fixed;image=https://cdn0.iconfinder.com/data/icons/logos-brands/24/logo_brand_brands_logos_apple_ios-128.png" vertex="1" parent="KYSWxHfdA6B5Yg-FgnPo-6">
          <mxGeometry x="21.5625" y="17.609375" width="17.8125" height="17.8125" as="geometry" />
        </mxCell>
        <mxCell id="KYSWxHfdA6B5Yg-FgnPo-21" value="" style="ellipse;whiteSpace=wrap;html=1;aspect=fixed;dashed=1;fillColor=none;" vertex="1" parent="KYSWxHfdA6B5Yg-FgnPo-6">
          <mxGeometry x="-12" y="-36.00000000000006" width="170" height="170" as="geometry" />
        </mxCell>
        <mxCell id="KYSWxHfdA6B5Yg-FgnPo-23" value="" style="shape=image;html=1;verticalAlign=top;verticalLabelPosition=bottom;labelBackgroundColor=#ffffff;imageAspect=0;aspect=fixed;image=https://cdn0.iconfinder.com/data/icons/analytic-investment-and-balanced-scorecard/512/162_watch_smart_watch_time_phone_android-128.png" vertex="1" parent="KYSWxHfdA6B5Yg-FgnPo-6">
          <mxGeometry x="47" y="68" width="56" height="56" as="geometry" />
        </mxCell>
        <mxCell id="KYSWxHfdA6B5Yg-FgnPo-42" value="" style="endArrow=classic;startArrow=classic;html=1;rounded=0;entryX=0.018;entryY=0.561;entryDx=0;entryDy=0;entryPerimeter=0;" edge="1" parent="KYSWxHfdA6B5Yg-FgnPo-6">
          <mxGeometry width="50" height="50" relative="1" as="geometry">
            <mxPoint x="154" y="44.99999999999994" as="sourcePoint" />
            <mxPoint x="417.5999999999999" y="44.81000000000034" as="targetPoint" />
          </mxGeometry>
        </mxCell>
        <mxCell id="KYSWxHfdA6B5Yg-FgnPo-8" value="" style="group" vertex="1" connectable="0" parent="KYSWxHfdA6B5Yg-FgnPo-16">
          <mxGeometry x="90.00062500000001" y="2.4700000000000273" width="57.52840909090909" height="57.52840909090912" as="geometry" />
        </mxCell>
        <mxCell id="KYSWxHfdA6B5Yg-FgnPo-5" value="" style="shape=image;html=1;verticalAlign=top;verticalLabelPosition=bottom;labelBackgroundColor=#ffffff;imageAspect=0;aspect=fixed;image=https://cdn4.iconfinder.com/data/icons/essential-app-1/16/mobile-phone-smart-screen-128.png" vertex="1" parent="KYSWxHfdA6B5Yg-FgnPo-8">
          <mxGeometry width="57.52840909090909" height="57.52840909090909" as="geometry" />
        </mxCell>
        <mxCell id="KYSWxHfdA6B5Yg-FgnPo-4" value="" style="shape=image;html=1;verticalAlign=top;verticalLabelPosition=bottom;labelBackgroundColor=#ffffff;imageAspect=0;aspect=fixed;image=https://cdn1.iconfinder.com/data/icons/logo-s-icon-pack-collection/512/android-128.png" vertex="1" parent="KYSWxHfdA6B5Yg-FgnPo-8">
          <mxGeometry x="21.015625" y="22.125" width="16.107954545454547" height="16.107954545454547" as="geometry" />
        </mxCell>
        <mxCell id="KYSWxHfdA6B5Yg-FgnPo-25" value="" style="sketch=0;aspect=fixed;pointerEvents=1;shadow=0;dashed=0;html=1;strokeColor=none;labelPosition=center;verticalLabelPosition=bottom;verticalAlign=top;align=center;fillColor=#050505;shape=mxgraph.mscae.enterprise.wireless_connection;rotation=-90;" vertex="1" parent="1">
          <mxGeometry x="171.92" y="230" width="33.6" height="40" as="geometry" />
        </mxCell>
        <mxCell id="KYSWxHfdA6B5Yg-FgnPo-26" value="" style="sketch=0;aspect=fixed;pointerEvents=1;shadow=0;dashed=0;html=1;strokeColor=none;labelPosition=center;verticalLabelPosition=bottom;verticalAlign=top;align=center;fillColor=#050505;shape=mxgraph.mscae.enterprise.wireless_connection;rotation=90;" vertex="1" parent="1">
          <mxGeometry x="167.92" y="114.99999999999999" width="33.6" height="40" as="geometry" />
        </mxCell>
        <mxCell id="KYSWxHfdA6B5Yg-FgnPo-29" value="" style="shape=image;verticalLabelPosition=bottom;labelBackgroundColor=default;verticalAlign=top;aspect=fixed;imageAspect=0;image=https://eshop.sectron.cz//UserFiles/Image/1585041328ble-01.jpg;" vertex="1" parent="1">
          <mxGeometry x="152.72" y="160" width="70" height="70" as="geometry" />
        </mxCell>
        <mxCell id="KYSWxHfdA6B5Yg-FgnPo-35" value="" style="rounded=1;arcSize=10;dashed=0;fillColor=none;gradientColor=none;strokeWidth=2;" vertex="1" parent="1">
          <mxGeometry x="470" y="-118.36363636363637" width="1050" height="936.3636363636363" as="geometry" />
        </mxCell>
        <mxCell id="KYSWxHfdA6B5Yg-FgnPo-36" value="" style="dashed=0;html=1;shape=mxgraph.aws3.cloud;fillColor=#F58536;gradientColor=none;dashed=0;" vertex="1" parent="1">
          <mxGeometry x="590" y="-190" width="175" height="118.55" as="geometry" />
        </mxCell>
        <mxCell id="KYSWxHfdA6B5Yg-FgnPo-43" value="" style="group" vertex="1" connectable="0" parent="1">
          <mxGeometry x="530" y="249" width="200" height="250" as="geometry" />
        </mxCell>
        <mxCell id="KYSWxHfdA6B5Yg-FgnPo-40" value="" style="outlineConnect=0;dashed=0;verticalLabelPosition=bottom;verticalAlign=top;align=center;html=1;shape=mxgraph.aws3.api_gateway;fillColor=#D9A741;gradientColor=none;" vertex="1" parent="KYSWxHfdA6B5Yg-FgnPo-43">
          <mxGeometry width="200" height="210" as="geometry" />
        </mxCell>
        <mxCell id="KYSWxHfdA6B5Yg-FgnPo-41" value="&lt;font style=&quot;font-size: 26px;&quot;&gt;API Gateway&lt;/font&gt;" style="text;html=1;align=center;verticalAlign=middle;resizable=0;points=[];autosize=1;strokeColor=none;fillColor=none;" vertex="1" parent="KYSWxHfdA6B5Yg-FgnPo-43">
          <mxGeometry x="10" y="210" width="180" height="40" as="geometry" />
        </mxCell>
        <mxCell id="KYSWxHfdA6B5Yg-FgnPo-44" value="" style="shape=image;verticalLabelPosition=bottom;labelBackgroundColor=default;verticalAlign=top;aspect=fixed;imageAspect=0;image=https://cdn-icons-png.flaticon.com/512/1652/1652335.png;" vertex="1" parent="1">
          <mxGeometry x="340" y="280" width="91" height="91" as="geometry" />
        </mxCell>
      </root>
    </mxGraphModel>
  </diagram>
</mxfile>
